<svg xmlns="http://www.w3.org/2000/svg" height="100" width="100" version="1.2"><path d="M26.945 89.413a2.498 2.498 0 003.536 0l7.071-7.07a2.498 2.498 0 000-3.536L25.178 66.432l12.374-12.375a2.498 2.498 0 000-3.535l-7.071-7.07c-.938-.939-2.598-.939-3.535 0L5.732 64.663a2.498 2.498 0 000 3.535zm1.768-40.659l3.536 3.536-12.374 12.374a2.498 2.498 0 000 3.535l12.374 12.375-3.536 3.536-17.678-17.678zm44.342-5.303a2.498 2.498 0 00-3.536 0l-7.071 7.071a2.498 2.498 0 000 3.535l12.374 12.375-12.374 12.375a2.498 2.498 0 000 3.535l7.071 7.071a2.498 2.498 0 003.536 0L94.268 68.2a2.498 2.498 0 000-3.535zm-1.768 40.66l-3.536-3.537L80.125 68.2a2.498 2.498 0 000-3.535L67.751 52.29l3.536-3.536 17.678 17.678z"/><path d="M37.989 32.127h-7.31l-1.422 5.432h-5.67l8.295-26.541h4.904l8.349 26.541H39.41zm-6.143-4.466h4.958l-2.48-9.461zm21.146.565v9.333h-5.36V11.018h9.042q3.937 0 6.27 2.442 2.352 2.443 2.352 6.344 0 3.901-2.315 6.162-2.315 2.26-6.416 2.26zm0-4.466h3.682q1.53 0 2.37-1.003.838-1.002.838-2.916 0-1.987-.857-3.154-.856-1.185-2.296-1.203h-3.737zm21.455 13.8h-5.36V11.017h5.36z" word-spacing="0" letter-spacing="0" font-size="37.333" font-weight="700" aria-label="API"/></svg>