<svg xmlns="http://www.w3.org/2000/svg" height="100" width="100" version="1.2"><path d="M10 90h80a2.5 2.5 0 002.5-2.5v-70c0-4.136-3.364-7.5-7.5-7.5H15c-4.136 0-7.5 3.364-7.5 7.5v70A2.5 2.5 0 0010 90zm2.5-5V30h75v55h-75zM15 15h70c1.379 0 2.5 1.121 2.5 2.5V25h-75v-7.5c0-1.379 1.121-2.5 2.5-2.5z"/><path d="M31.768 61.41l-7.5-7.5a2.5 2.5 0 10-3.535 3.535l5.732 5.732-5.732 5.732a2.498 2.498 0 000 3.535 2.494 2.494 0 003.535.002l7.5-7.5a2.501 2.501 0 000-3.536zM50 73.178H35a2.5 2.5 0 100 5h15a2.5 2.5 0 100-5z"/><g style="line-height:1.25" aria-label="CLI" font-weight="700" font-size="32" letter-spacing="0" word-spacing="0"><path d="M55.81 52.591q-.173 3.891-2.188 5.891-2.016 2-5.688 2-3.86 0-5.922-2.531-2.046-2.547-2.046-7.25v-3.828q0-4.688 2.125-7.22 2.125-2.546 5.906-2.546 3.719 0 5.64 2.078 1.938 2.078 2.204 5.969h-4.61q-.062-2.406-.75-3.313-.672-.922-2.484-.922-1.844 0-2.61 1.297-.765 1.282-.812 4.235v4.297q0 3.39.75 4.656.766 1.265 2.61 1.265 1.812 0 2.5-.875.687-.89.78-3.203zM63.231 56.357h8.063v3.812H58.637V37.42h4.594zM78.747 60.17h-4.594V37.42h4.594z"/></g></svg>