<svg height="100" width="100" xmlns="http://www.w3.org/2000/svg"><path d="m10 90h80a2.5 2.5 0 0 0 2.5-2.5v-70c0-4.136-3.364-7.5-7.5-7.5h-70c-4.136 0-7.5 3.364-7.5 7.5v70a2.5 2.5 0 0 0 2.5 2.5zm2.5-5v-55h75v55zm2.5-70h70c1.379 0 2.5 1.121 2.5 2.5v7.5h-75v-7.5c0-1.379 1.121-2.5 2.5-2.5z"/><path d="m31.768 61.41-7.5-7.5a2.5 2.5 0 1 0 -3.535 3.535l5.732 5.732-5.732 5.732a2.498 2.498 0 0 0 0 3.535 2.494 2.494 0 0 0 3.535.002l7.5-7.5a2.501 2.501 0 0 0 0-3.536zm18.232 11.768h-15a2.5 2.5 0 1 0 0 5h15a2.5 2.5 0 1 0 0-5z"/><path d="m55.81 52.591q-.173 3.891-2.188 5.891-2.016 2-5.688 2-3.86 0-5.922-2.531-2.046-2.547-2.046-7.25v-3.828q0-4.688 2.125-7.22 2.125-2.546 5.906-2.546 3.719 0 5.64 2.078 1.938 2.078 2.204 5.969h-4.61q-.062-2.406-.75-3.313-.672-.922-2.484-.922-1.844 0-2.61 1.297-.765 1.282-.812 4.235v4.297q0 3.39.75 4.656.766 1.265 2.61 1.265 1.812 0 2.5-.875.687-.89.78-3.203zm7.421 3.766h8.063v3.812h-12.657v-22.749h4.594zm15.516 3.813h-4.594v-22.75h4.594z"/></svg>