<svg height="51" width="44" xmlns="http://www.w3.org/2000/svg"><g fill="#4e4e4e"><path d="m1.745 5.475c0 1.558-.125 2.066-.445 2.44a1.94 1.94 0 0 1 -1.3.498l.125.89a3.045 3.045 0 0 0 2.03-.738 3.561 3.561 0 0 0 .783-2.671v-5.894h-1.193z" transform="translate(.54 21.36)"/><path d="m5.502 4.763c0 .668 0 1.264.053 1.78h-1.059l-.071-1.059a2.466 2.466 0 0 1 -2.165 1.211c-1.03 0-2.26-.56-2.26-2.849v-3.801h1.193v3.56c0 1.238.383 2.066 1.46 2.066a1.665 1.665 0 0 0 1.683-1.681v-3.99h1.193v4.727z" transform="translate(5.68 21.37)"/><path d="m.053 2.273c0-.828 0-1.505-.053-2.12h1.068l.054 1.114a2.582 2.582 0 0 1 2.332-1.265c1.585 0 2.778 1.327 2.778 3.303 0 2.333-1.433 3.49-2.982 3.49a2.306 2.306 0 0 1 -2.021-1.023v3.56h-1.176v-7.058zm1.177 1.736c.003.161.02.322.053.48a1.834 1.834 0 0 0 1.78 1.38c1.256 0 1.995-1.023 1.995-2.51 0-1.3-.695-2.413-1.95-2.413a2.048 2.048 0 0 0 -1.878 1.95z" transform="translate(13.39 21.26)"/><path d="m1.318.018 1.432 3.837c.151.427.312.944.418 1.327.125-.392.259-.89.419-1.354l1.3-3.81h1.255l-1.78 4.63c-.89 2.225-1.434 3.374-2.253 4.068a3.24 3.24 0 0 1 -1.46.766l-.294-.997a3.16 3.16 0 0 0 1.042-.58 3.561 3.561 0 0 0 1.006-1.317.89.89 0 0 0 .098-.285 1.024 1.024 0 0 0 -.08-.311l-2.421-5.992h1.3z" transform="translate(20.43 21.39)"/><path d="m2.19 0v1.87h1.71v.89h-1.71v3.508c0 .801.232 1.264.89 1.264.234.004.468-.023.695-.08l.053.89c-.34.118-.7.172-1.06.16a1.656 1.656 0 0 1 -1.29-.498 2.395 2.395 0 0 1 -.463-1.692v-3.561h-1.015v-.89h1.033v-1.585z" transform="translate(27.55 19.54)"/><path d="m1.177 3.579a2.092 2.092 0 0 0 2.253 2.252 4.345 4.345 0 0 0 1.78-.338l.205.89a5.342 5.342 0 0 1 -2.181.401 3.027 3.027 0 0 1 -3.224-3.276c0-1.959 1.167-3.508 3.072-3.508 2.138 0 2.671 1.87 2.671 3.063.012.183.012.368 0 .552h-4.603zm3.49-.89a1.683 1.683 0 0 0 -1.656-1.923 1.968 1.968 0 0 0 -1.825 1.923z" transform="translate(32.47 21.29)"/><path d="m.053 2.192c0-.765 0-1.424-.053-2.03h1.068v1.274h.054a1.968 1.968 0 0 1 1.78-1.426 1.3 1.3 0 0 1 .339 0v1.113a1.78 1.78 0 0 0 -.41 0 1.665 1.665 0 0 0 -1.593 1.513 3.293 3.293 0 0 0 -.054.552v3.464h-1.174v-4.452l.044-.009z" transform="translate(39.98 21.24)"/></g><path d="m6.03 2.836a3.018 3.018 0 1 1 -3.141-2.831 2.982 2.982 0 0 1 3.143 2.83z" fill="#767677" transform="translate(33.48 .69)"/><path d="m18.696 7.122c-8.012 0-15.055-2.875-18.696-7.122a19.934 19.934 0 0 0 37.392 0c-3.632 4.247-10.648 7.122-18.696 7.122z" fill="#f37726" transform="translate(3.21 31.27)"/><path d="m18.696 5.897c8.013 0 15.055 2.876 18.696 7.123a19.934 19.934 0 0 0 -37.392 0c3.641-4.256 10.648-7.123 18.696-7.123z" fill="#f37726" transform="translate(3.21 4.88)"/><path d="m7.596 3.567a3.802 3.802 0 1 1 -3.962-3.562 3.766 3.766 0 0 1 3.962 3.562z" fill="#9e9e9e" transform="translate(3.28 43.09)"/><path d="m2.25 4.38a2.19 2.19 0 1 1 2.129-2.28 2.217 2.217 0 0 1 -2.127 2.28z" fill="#616262" transform="translate(1.87 5.43)"/></svg>