<svg clip-rule="evenodd" fill-rule="evenodd" viewBox="0 0 5300 1057" xmlns="http://www.w3.org/2000/svg"><g fill="#003b49"><g fill-rule="nonzero" transform="matrix(2.91345 0 0 2.91345 -1.06089 -1.06303)"><path d="m400 87.69c19.918.007 37.758 12.697 44.3 31.51l34.75 100.09h.48l36-100.52c6.667-18.599 24.402-31.081 44.16-31.08l-66.04 172.31h-28.72l-66-172.28z"/><path d="m663.3 260h-15c-7.514.005-13.704-6.166-13.72-13.68v-.2h-.47c-8.38 10.53-23.21 16.27-38.29 16.27-25.36 0-45.7-13.4-45.7-38.52 0-22.73 16.27-37.09 45-38.53l38.53-1.91v-5.74c0-15.79-12.68-23.45-26.08-23.45s-23.93 6.94-25.61 21h-29.21c2.87-27 23.69-44.5 54.8-44.5 32.78 0 54.79 20.82 54.79 50.73v37.32c0 25.39-.24 32.8.96 41.21zm-63.17-52.4c-13.64.71-20.34 6.22-20.34 15.31 0 10.05 7.9 15.55 18 15.55 23.68 0 35.89-14.59 35.89-27.75v-4.79z"/><path d="m727 196.8c0-37.09 28.23-65.56 64.84-65.56s64.84 28.47 64.84 65.56-28.23 65.56-64.84 65.56-64.84-28.47-64.84-65.56zm100 0c0-22.73-15.07-38.76-35.17-38.76s-35.17 16-35.17 38.76 15.07 38.76 35.17 38.76 35.17-16.03 35.17-38.76z"/><path d="m1112.67 260h-15c-7.51-.022-13.67-6.204-13.67-13.71v-.2h-.48c-8.37 10.53-23.2 16.27-38.28 16.27-25.36 0-45.7-13.4-45.7-38.52 0-22.73 16.27-37.09 45-38.53l38.46-1.91v-5.74c0-15.79-12.69-23.45-26.09-23.45s-23.92 6.94-25.6 21h-29.19c2.87-27 23.69-44.5 54.79-44.5 32.79 0 54.8 20.82 54.8 50.73v37.32c0 25.42-.24 32.83.96 41.24zm-63.17-52.4c-13.64.71-20.34 6.22-20.34 15.31 0 10.05 7.9 15.55 17.94 15.55 23.69 0 35.9-14.59 35.9-27.75v-4.79z"/><path d="m1128.46 100.85c0-10.496 8.64-19.13 19.14-19.13s19.14 8.64 19.14 19.14-8.64 19.14-19.14 19.14c-.05 0-.09.001-.14.001-10.42 0-19-8.577-19-19 0-.051 0-.101 0-.151zm33.5 32.3v126.85h-28.71v-126.85z"/><path d="m680.75 82.91v177.09h28.71v-138.28c-.6-12.46-7.56-33.64-28.71-38.81z"/><path d="m981.53 182.21v77.79h-28.71v-74.44c0-19.15-8.37-28.72-21.77-28.72-17 0-28.95 12.92-28.95 31.35v71.81h-28.72v-177.09c21.15 5.17 28.11 26.35 28.71 38.81v27h.47c6-9.33 18.67-18 35.42-18 23.02.04 43.55 15.12 43.55 51.49z"/></g><circle cx="181.86" cy="181.86" r="181.34" transform="matrix(2.06012 -2.06012 2.06012 2.06012 -220.531 528.778)"/></g><g fill-rule="nonzero"><g transform="matrix(2.91345 0 0 2.91345 -1.06089 -1.06303)"><path d="m181.86 63.21c-31.31 0-115.08 131.55-115.08 208.22 0 4.147.153 8.253.46 12.32 29.062 32.769 70.825 51.552 114.625 51.552s85.563-18.783 114.625-51.552c.3-4.06.453-8.167.46-12.32.05-76.67-83.77-208.22-115.09-208.22z" fill="#2dccd3"/><path d="m181.86 63.21h-.43v272.09h.43c43.804.016 85.575-18.768 114.63-51.55.3-4.06.453-8.167.46-12.32.05-76.67-83.77-208.22-115.09-208.22z" fill="#b1e4e3"/><path d="m181.87 132.61c-57.78 0-104.63 64.1-104.63 143.15 0 6.48.33 12.85.93 19.1 58.299 53.634 149.081 53.634 207.38 0 .613-6.247.923-12.613.93-19.1 0-79.05-46.84-143.15-104.61-143.15z" fill="#fff"/><path d="m181.86 210.7c38.09 0 70.23 33 80.37 78.08 2.223-9.97 3.34-20.155 3.33-30.37 0-59.89-37.47-108.44-83.7-108.44s-83.69 48.55-83.69 108.44c-.01 10.215 1.107 20.4 3.33 30.37 10.14-45.11 42.28-78.08 80.36-78.08" fill="#003b49"/></g><g fill="#003b49" transform="matrix(1.8212 0 0 1.8212 -4438.16 119.089)"><path d="m4443.84 318.68v-140.832h36.58c35.42 0 64.51 23.04 64.51 70.848 0 47.232-29.37 69.984-64.8 69.984zm37.44 31.68c55.3 0 99.65-36.288 99.65-101.664 0-65.664-43.77-102.528-99.36-102.528h-72.29v204.192z"/><path d="m4676.55 324.728c-20.45 0-39.17-15.552-39.17-44.64s18.72-44.064 39.17-44.064c20.73 0 39.17 14.976 39.17 44.064 0 29.376-18.44 44.64-39.17 44.64zm0-118.944c-41.76 0-72.58 31.392-72.58 74.304 0 43.2 30.82 74.592 72.58 74.592 42.05 0 72.86-31.392 72.86-74.592 0-42.912-30.81-74.304-72.86-74.304z"/><path d="m4842.72 236.6c21.32 0 30.82 13.824 33.99 26.208l29.95-10.944c-5.76-22.464-26.5-46.08-64.22-46.08-40.32 0-71.72 31.104-71.72 74.304 0 42.624 31.4 74.592 72.58 74.592 36.86 0 57.89-23.904 64.51-45.792l-29.37-10.656c-3.17 10.656-13.25 25.92-35.14 25.92-21.02 0-39.17-15.84-39.17-44.064s18.15-43.488 38.59-43.488z"/><path d="m4925.09 312.344c1.73 15.84 17.28 42.336 57.89 42.336 35.71 0 52.99-23.616 52.99-44.928 0-20.736-13.82-36.864-40.32-42.624l-21.31-4.32c-8.64-1.728-14.11-7.2-14.11-14.688 0-8.64 8.35-16.128 20.16-16.128 18.72 0 24.77 12.96 25.92 21.024l28.22-8.064c-2.3-13.824-14.97-39.168-54.14-39.168-29.09 0-51.55 20.736-51.55 45.216 0 19.296 12.96 35.424 37.72 40.896l20.74 4.608c11.23 2.304 16.42 8.064 16.42 15.552 0 8.64-7.2 16.128-21.03 16.128-17.85 0-27.36-11.232-28.51-23.904z"/></g></g></svg>