<svg id="Layer_1" xmlns="http://www.w3.org/2000/svg" xmlns:xlink="http://www.w3.org/1999/xlink" viewBox="0 0 6032.8 1057"><style>.st0{fill:none}.st1{fill:#02373f}.st2{clip-path:url(#SVGID_2_)}.st3{fill:#64c8d0}.st4{fill:#fff}.st5{clip-path:url(#SVGID_4_)}.st6{opacity:.4;fill:#fff;enable-background:new}.st7{clip-path:url(#SVGID_6_)}</style><path class="st0" d="M0 0h3961.9v1056.4H0V0z"/><path class="st1" d="M1015.8 528.2c0 269.3-218.3 487.6-487.6 487.6S40.6 797.5 40.6 528.2 258.9 40.6 528.2 40.6s487.6 218.3 487.6 487.6"/><defs><path id="SVGID_1_" d="M40.6 528.2c0 269.3 218.3 487.6 487.6 487.6s487.6-218.3 487.6-487.6S797.5 40.6 528.2 40.6 40.6 258.9 40.6 528.2z"/></defs><clipPath id="SVGID_2_"><use xlink:href="#SVGID_1_" overflow="visible"/></clipPath><g class="st2"><path class="st3" d="M863.4 789.1c0 223.3-150.1 404.3-335.2 404.3S193 1012.4 193 789.1s244-606.5 335.2-606.5c91.2 0 335.2 383.2 335.2 606.5"/><path class="st4" d="M832.9 801.7c0 230.3-136.4 417-304.7 417s-304.7-186.7-304.7-417 136.4-417 304.7-417 304.7 186.7 304.7 417"/></g><defs><path id="SVGID_3_" d="M193 789.1c0 35.7 3.8 70.4 11.1 103.3 86.2 76.7 199.7 123.4 324.2 123.4s238-46.6 324.2-123.4c7.2-33 11-67.6 11-103.3 0-223.3-244-606.5-335.2-606.5C437 182.6 193 565.8 193 789.1z"/></defs><clipPath id="SVGID_4_"><use xlink:href="#SVGID_3_" overflow="visible"/></clipPath><g class="st5"><path class="st6" d="M528.2-265.1h528.2V1266H528.2V-265.1z"/></g><defs><path id="SVGID_5_" d="M40.6 528.2c0 269.3 218.3 487.6 487.6 487.6s487.6-218.3 487.6-487.6S797.5 40.6 528.2 40.6 40.6 258.9 40.6 528.2z"/></defs><clipPath id="SVGID_6_"><use xlink:href="#SVGID_5_" overflow="visible"/></clipPath><g class="st7"><path class="st1" d="M528.2 612.2c110.9 0 204.6 96 234.1 227.4 6.3-28.1 9.7-57.7 9.7-88.5 0-174.5-109.1-315.9-243.8-315.9-134.6 0-243.8 141.4-243.8 315.9 0 30.7 3.4 60.4 9.7 88.5 29.5-131.4 123.2-227.4 234.1-227.4"/></g><path class="st1" d="M528.2 81.3c-246.4 0-446.9 200.5-446.9 446.9s200.5 446.9 446.9 446.9 446.9-200.5 446.9-446.9c.1-246.4-200.4-446.9-446.9-446.9m0 975.1C237 1056.4 0 819.5 0 528.2 0 237 237 0 528.2 0c291.3 0 528.2 237 528.2 528.2 0 291.3-236.9 528.2-528.2 528.2m765-715.9L1414.9 617l118.6-276.4h87.2l-190.1 436.1h-29l-196.3-436.1 87.9-.1zm418.5 262.6h139L1778 432.7l-66.3 170.4zm108.4-262.6L2010.3 771h-87.8l-44.7-104.8h-191.4L1644.8 771h-87.2l177.5-430.5h85zm323.9 0V706h208.9v65h-292.1V340.5h83.2zm322 215.4c0 28.6 6.5 54.2 19.4 77s31 40.5 54.1 53 49.3 18.8 78.4 18.8c44.2 0 80.5-13.9 108.9-41.6 28.4-27.7 42.7-63.5 42.7-107.2 0-28.6-6.4-54.3-19.2-77.2-12.9-22.9-30.9-40.6-54.2-53.2-23.3-12.5-49.6-18.8-78.7-18.8s-55.4 6.3-78.7 19c-23.3 12.6-41.2 30.3-53.8 53-12.6 22.7-18.9 48.5-18.9 77.2M2618 335c44.6 0 84.7 9.2 120.3 27.6s64.1 44.9 85.2 79.5c21.2 34.6 31.8 72.6 31.8 113.9 0 40.3-10.3 77.6-31 112-20.6 34.4-49 61.1-85.1 80.1s-76.7 28.5-121.9 28.5c-44.6 0-85.1-9.7-121.6-29s-64.9-45.9-85.2-79.7-30.5-71.1-30.5-112c0-39.4 10.2-76.5 30.5-111.2s48.4-61.7 84.1-80.9c35.8-19.2 76.9-28.8 123.4-28.8m398.4 5.5v181.2h223.4V340.5h83.2V771h-83.2V589.2h-223.4V771h-83.2V340.5h83.2zm511.3 262.6h139L3594 432.7l-66.3 170.4zm108.4-262.6L3826.3 771h-87.8l-44.7-104.8h-191.4L3460.8 771h-87.2l177.5-430.5h85zm242.6 0h83.2V771h-83.2V340.5zm591.3-.5c44.7 0 84.5 9.1 119.5 27.4 34.9 18.3 61.9 43.9 81.2 76.9 19.3 33 28.9 70.1 28.9 111.5 0 42-9.7 79.3-29.1 111.9-19.4 32.5-46.9 57.7-82.6 75.5-35.7 17.8-76.6 26.8-122.8 26.8H4290V340h180zm-8.8 365c45.9 0 82.8-13.8 110.6-41.4 27.8-27.6 41.7-63.7 41.7-108.4 0-46.3-14-83-42-109.8-28-26.9-65.7-40.3-113-40.3H4373v300l88.2-.1zm536.1-370.2c44.5 0 84.5 9.2 120.1 27.5 35.6 18.4 63.9 44.8 85.1 79.4 21.1 34.6 31.7 72.4 31.7 113.7 0 40.2-10.3 77.5-30.9 111.8-20.6 34.4-48.9 61-84.9 80s-76.5 28.5-121.7 28.5c-44.5 0-85-9.6-121.4-28.9-36.4-19.3-64.8-45.8-85.1-79.5-20.3-33.7-30.5-71-30.5-111.8 0-39.4 10.2-76.4 30.5-111 20.3-34.7 48.3-61.6 84-80.7 35.8-19.4 76.8-29 123.1-29zm-151.6 220.6c0 28.5 6.5 54.1 19.4 76.9s30.9 40.4 54 52.9 49.2 18.8 78.3 18.8c44.1 0 80.3-13.8 108.7-41.5 28.4-27.7 42.6-63.4 42.6-107.1 0-28.5-6.4-54.2-19.2-77.1-12.8-22.9-30.9-40.6-54.1-53.1-23.3-12.5-49.5-18.8-78.6-18.8s-55.3 6.3-78.6 18.9c-23.3 12.6-41.2 30.3-53.7 52.9-12.6 22.8-18.8 48.5-18.8 77.2zm691.8-220.6c24.4 0 48.3 2.8 71.7 8.3s48.6 15 75.8 28.3v78.1c-26.6-15.2-51-26.1-73.5-32.9s-45.9-10.2-70.3-10.2c-30.6 0-58.1 6.3-82.7 18.9s-43.7 30.4-57.4 53.4c-13.6 23-20.5 48.5-20.5 76.6 0 28.7 6.8 54.4 20.3 77.2s32.6 40.4 57.2 52.8c24.6 12.4 52.3 18.6 83.1 18.6 23.6 0 46.1-3.4 67.5-10.2s48.4-19 81.3-36.6v78.1c-28.1 14.6-53.7 24.9-77.1 31.1s-50.7 9.2-81.8 9.2c-45.3 0-85.8-9-121.5-27.1-35.7-18-63.7-44-84.1-78-20.4-33.9-30.6-71.1-30.6-111.5 0-43.3 10.5-82.1 31.5-116.6s49.9-61 86.7-79.7c36.8-18.4 78.3-27.8 124.4-27.8zm355.6 0c41.8 0 82.1 10.5 120.9 31.4V440c-44.5-26.9-84-40.3-118.4-40.3-20.9 0-37.3 4.1-49.1 12.2-11.8 8.1-17.7 18.9-17.7 32.5 0 16.2 11 31.2 32.9 44.9 6.2 4.1 29.8 15.6 71.1 34.5 35.3 16.6 60.7 35.1 76.3 55.4 15.6 20.3 23.4 44.7 23.4 73.2 0 36.9-13.3 66.7-39.8 89.4-26.6 22.7-61 34-103.2 34-27.5 0-51.1-3-70.9-9.1-19.8-6-42-16.5-66.6-31.2v-81.8c45.9 38.1 89.2 57.2 129.8 57.2 20.3 0 36.7-4.4 49.2-13.2 12.5-8.8 18.8-20.5 18.8-35.1 0-19.9-10.9-36.1-32.6-48.6-18-9.8-41.3-21.6-69.8-35.4-33.8-15.4-59.1-33.3-75.8-53.8-16.7-20.5-25.1-44.3-25.1-71.4 0-36.1 13.4-64.9 40.3-86.3 26.8-21.5 62.2-32.3 106.3-32.3z"/></svg>